<mxfile host="65bd71144e">
    <diagram id="zMg3x0RDLD2u-cq_bCOZ" name="Page-1">
        <mxGraphModel dx="1454" dy="686" grid="1" gridSize="10" guides="1" tooltips="1" connect="1" arrows="1" fold="1" page="1" pageScale="1" pageWidth="4681" pageHeight="3300" math="0" shadow="0">
            <root>
                <mxCell id="0"/>
                <mxCell id="1" parent="0"/>
                <mxCell id="2" value="" style="shape=table;startSize=0;container=1;collapsible=0;childLayout=tableLayout;fontSize=16;fontFamily=思源宋体;" parent="1" vertex="1">
                    <mxGeometry x="40" y="40" width="600" height="440.0000000000001" as="geometry"/>
                </mxCell>
                <mxCell id="3" value="" style="shape=tableRow;horizontal=0;startSize=0;swimlaneHead=0;swimlaneBody=0;strokeColor=inherit;top=0;left=0;bottom=0;right=0;collapsible=0;dropTarget=0;fillColor=none;points=[[0,0.5],[1,0.5]];portConstraint=eastwest;fontSize=16;fontFamily=思源宋体;" parent="2" vertex="1">
                    <mxGeometry width="600" height="40" as="geometry"/>
                </mxCell>
                <mxCell id="4" value="天气" style="shape=partialRectangle;html=1;whiteSpace=wrap;connectable=0;strokeColor=#d79b00;overflow=hidden;fillColor=#ffe6cc;top=0;left=0;bottom=0;right=0;pointerEvents=1;fontSize=16;fontFamily=思源宋体;" parent="3" vertex="1">
                    <mxGeometry width="150" height="40" as="geometry">
                        <mxRectangle width="150" height="40" as="alternateBounds"/>
                    </mxGeometry>
                </mxCell>
                <mxCell id="5" value="温度" style="shape=partialRectangle;html=1;whiteSpace=wrap;connectable=0;strokeColor=#d79b00;overflow=hidden;fillColor=#ffe6cc;top=0;left=0;bottom=0;right=0;pointerEvents=1;fontSize=16;fontFamily=思源宋体;" parent="3" vertex="1">
                    <mxGeometry x="150" width="150" height="40" as="geometry">
                        <mxRectangle width="150" height="40" as="alternateBounds"/>
                    </mxGeometry>
                </mxCell>
                <mxCell id="6" value="风力" style="shape=partialRectangle;html=1;whiteSpace=wrap;connectable=0;strokeColor=#d79b00;overflow=hidden;fillColor=#ffe6cc;top=0;left=0;bottom=0;right=0;pointerEvents=1;fontSize=16;fontFamily=思源宋体;" parent="3" vertex="1">
                    <mxGeometry x="300" width="150" height="40" as="geometry">
                        <mxRectangle width="150" height="40" as="alternateBounds"/>
                    </mxGeometry>
                </mxCell>
                <mxCell id="15" value="适合外出" style="shape=partialRectangle;html=1;whiteSpace=wrap;connectable=0;strokeColor=#9673a6;overflow=hidden;fillColor=#e1d5e7;top=0;left=0;bottom=0;right=0;pointerEvents=1;fontSize=16;fontFamily=思源宋体;" parent="3" vertex="1">
                    <mxGeometry x="450" width="150" height="40" as="geometry">
                        <mxRectangle width="150" height="40" as="alternateBounds"/>
                    </mxGeometry>
                </mxCell>
                <mxCell id="7" value="" style="shape=tableRow;horizontal=0;startSize=0;swimlaneHead=0;swimlaneBody=0;strokeColor=inherit;top=0;left=0;bottom=0;right=0;collapsible=0;dropTarget=0;fillColor=none;points=[[0,0.5],[1,0.5]];portConstraint=eastwest;fontSize=16;fontFamily=思源宋体;" parent="2" vertex="1">
                    <mxGeometry y="40" width="600" height="40" as="geometry"/>
                </mxCell>
                <mxCell id="8" value="晴" style="shape=partialRectangle;html=1;whiteSpace=wrap;connectable=0;strokeColor=#36393d;overflow=hidden;fillColor=#ffcc99;top=0;left=0;bottom=0;right=0;pointerEvents=1;fontSize=16;fontFamily=思源宋体;" parent="7" vertex="1">
                    <mxGeometry width="150" height="40" as="geometry">
                        <mxRectangle width="150" height="40" as="alternateBounds"/>
                    </mxGeometry>
                </mxCell>
                <mxCell id="9" value="高" style="shape=partialRectangle;html=1;whiteSpace=wrap;connectable=0;strokeColor=#36393d;overflow=hidden;fillColor=#ffcc99;top=0;left=0;bottom=0;right=0;pointerEvents=1;fontSize=16;fontFamily=思源宋体;" parent="7" vertex="1">
                    <mxGeometry x="150" width="150" height="40" as="geometry">
                        <mxRectangle width="150" height="40" as="alternateBounds"/>
                    </mxGeometry>
                </mxCell>
                <mxCell id="10" value="无风" style="shape=partialRectangle;html=1;whiteSpace=wrap;connectable=0;strokeColor=#36393d;overflow=hidden;fillColor=#ffcc99;top=0;left=0;bottom=0;right=0;pointerEvents=1;fontSize=16;fontFamily=思源宋体;" parent="7" vertex="1">
                    <mxGeometry x="300" width="150" height="40" as="geometry">
                        <mxRectangle width="150" height="40" as="alternateBounds"/>
                    </mxGeometry>
                </mxCell>
                <mxCell id="16" value="是" style="shape=partialRectangle;html=1;whiteSpace=wrap;connectable=0;strokeColor=#9673a6;overflow=hidden;fillColor=#CC99FF;top=0;left=0;bottom=0;right=0;pointerEvents=1;fontSize=16;fontFamily=思源宋体;" parent="7" vertex="1">
                    <mxGeometry x="450" width="150" height="40" as="geometry">
                        <mxRectangle width="150" height="40" as="alternateBounds"/>
                    </mxGeometry>
                </mxCell>
                <mxCell id="11" value="" style="shape=tableRow;horizontal=0;startSize=0;swimlaneHead=0;swimlaneBody=0;strokeColor=inherit;top=0;left=0;bottom=0;right=0;collapsible=0;dropTarget=0;fillColor=none;points=[[0,0.5],[1,0.5]];portConstraint=eastwest;fontSize=16;fontFamily=思源宋体;" parent="2" vertex="1">
                    <mxGeometry y="80" width="600" height="40" as="geometry"/>
                </mxCell>
                <mxCell id="12" value="&lt;span style=&quot;color: rgb(0, 0, 0);&quot;&gt;晴&lt;/span&gt;" style="shape=partialRectangle;html=1;whiteSpace=wrap;connectable=0;strokeColor=#36393d;overflow=hidden;fillColor=#ffcc99;top=0;left=0;bottom=0;right=0;pointerEvents=1;fontSize=16;fontFamily=思源宋体;" parent="11" vertex="1">
                    <mxGeometry width="150" height="40" as="geometry">
                        <mxRectangle width="150" height="40" as="alternateBounds"/>
                    </mxGeometry>
                </mxCell>
                <mxCell id="13" value="中" style="shape=partialRectangle;html=1;whiteSpace=wrap;connectable=0;strokeColor=#36393d;overflow=hidden;fillColor=#ffcc99;top=0;left=0;bottom=0;right=0;pointerEvents=1;fontSize=16;fontFamily=思源宋体;" parent="11" vertex="1">
                    <mxGeometry x="150" width="150" height="40" as="geometry">
                        <mxRectangle width="150" height="40" as="alternateBounds"/>
                    </mxGeometry>
                </mxCell>
                <mxCell id="14" value="微风" style="shape=partialRectangle;html=1;whiteSpace=wrap;connectable=0;strokeColor=#36393d;overflow=hidden;fillColor=#ffcc99;top=0;left=0;bottom=0;right=0;pointerEvents=1;fontSize=16;fontFamily=思源宋体;" parent="11" vertex="1">
                    <mxGeometry x="300" width="150" height="40" as="geometry">
                        <mxRectangle width="150" height="40" as="alternateBounds"/>
                    </mxGeometry>
                </mxCell>
                <mxCell id="17" value="是" style="shape=partialRectangle;html=1;whiteSpace=wrap;connectable=0;strokeColor=#9673a6;overflow=hidden;fillColor=#CC99FF;top=0;left=0;bottom=0;right=0;pointerEvents=1;fontSize=16;fontFamily=思源宋体;" parent="11" vertex="1">
                    <mxGeometry x="450" width="150" height="40" as="geometry">
                        <mxRectangle width="150" height="40" as="alternateBounds"/>
                    </mxGeometry>
                </mxCell>
                <mxCell id="18" style="shape=tableRow;horizontal=0;startSize=0;swimlaneHead=0;swimlaneBody=0;strokeColor=inherit;top=0;left=0;bottom=0;right=0;collapsible=0;dropTarget=0;fillColor=none;points=[[0,0.5],[1,0.5]];portConstraint=eastwest;fontSize=16;fontFamily=思源宋体;" parent="2" vertex="1">
                    <mxGeometry y="120" width="600" height="40" as="geometry"/>
                </mxCell>
                <mxCell id="19" value="阴" style="shape=partialRectangle;html=1;whiteSpace=wrap;connectable=0;strokeColor=#36393d;overflow=hidden;fillColor=#ffcc99;top=0;left=0;bottom=0;right=0;pointerEvents=1;fontSize=16;fontFamily=思源宋体;" parent="18" vertex="1">
                    <mxGeometry width="150" height="40" as="geometry">
                        <mxRectangle width="150" height="40" as="alternateBounds"/>
                    </mxGeometry>
                </mxCell>
                <mxCell id="20" value="中" style="shape=partialRectangle;html=1;whiteSpace=wrap;connectable=0;strokeColor=#36393d;overflow=hidden;fillColor=#ffcc99;top=0;left=0;bottom=0;right=0;pointerEvents=1;fontSize=16;fontFamily=思源宋体;" parent="18" vertex="1">
                    <mxGeometry x="150" width="150" height="40" as="geometry">
                        <mxRectangle width="150" height="40" as="alternateBounds"/>
                    </mxGeometry>
                </mxCell>
                <mxCell id="21" value="&lt;span style=&quot;color: rgb(0, 0, 0);&quot;&gt;无风&lt;/span&gt;" style="shape=partialRectangle;html=1;whiteSpace=wrap;connectable=0;strokeColor=#36393d;overflow=hidden;fillColor=#ffcc99;top=0;left=0;bottom=0;right=0;pointerEvents=1;fontSize=16;fontFamily=思源宋体;" parent="18" vertex="1">
                    <mxGeometry x="300" width="150" height="40" as="geometry">
                        <mxRectangle width="150" height="40" as="alternateBounds"/>
                    </mxGeometry>
                </mxCell>
                <mxCell id="22" value="&lt;span style=&quot;color: rgb(0, 0, 0);&quot;&gt;是&lt;/span&gt;" style="shape=partialRectangle;html=1;whiteSpace=wrap;connectable=0;strokeColor=#9673a6;overflow=hidden;fillColor=#CC99FF;top=0;left=0;bottom=0;right=0;pointerEvents=1;fontSize=16;fontFamily=思源宋体;" parent="18" vertex="1">
                    <mxGeometry x="450" width="150" height="40" as="geometry">
                        <mxRectangle width="150" height="40" as="alternateBounds"/>
                    </mxGeometry>
                </mxCell>
                <mxCell id="23" style="shape=tableRow;horizontal=0;startSize=0;swimlaneHead=0;swimlaneBody=0;strokeColor=inherit;top=0;left=0;bottom=0;right=0;collapsible=0;dropTarget=0;fillColor=none;points=[[0,0.5],[1,0.5]];portConstraint=eastwest;fontSize=16;fontFamily=思源宋体;" parent="2" vertex="1">
                    <mxGeometry y="160" width="600" height="40" as="geometry"/>
                </mxCell>
                <mxCell id="24" value="雨" style="shape=partialRectangle;html=1;whiteSpace=wrap;connectable=0;strokeColor=#36393d;overflow=hidden;fillColor=#ffcc99;top=0;left=0;bottom=0;right=0;pointerEvents=1;fontSize=16;fontFamily=思源宋体;" parent="23" vertex="1">
                    <mxGeometry width="150" height="40" as="geometry">
                        <mxRectangle width="150" height="40" as="alternateBounds"/>
                    </mxGeometry>
                </mxCell>
                <mxCell id="25" value="低" style="shape=partialRectangle;html=1;whiteSpace=wrap;connectable=0;strokeColor=#36393d;overflow=hidden;fillColor=#ffcc99;top=0;left=0;bottom=0;right=0;pointerEvents=1;fontSize=16;fontFamily=思源宋体;" parent="23" vertex="1">
                    <mxGeometry x="150" width="150" height="40" as="geometry">
                        <mxRectangle width="150" height="40" as="alternateBounds"/>
                    </mxGeometry>
                </mxCell>
                <mxCell id="26" value="&lt;span style=&quot;color: rgb(0, 0, 0);&quot;&gt;微风&lt;/span&gt;" style="shape=partialRectangle;html=1;whiteSpace=wrap;connectable=0;strokeColor=#36393d;overflow=hidden;fillColor=#ffcc99;top=0;left=0;bottom=0;right=0;pointerEvents=1;fontSize=16;fontFamily=思源宋体;" parent="23" vertex="1">
                    <mxGeometry x="300" width="150" height="40" as="geometry">
                        <mxRectangle width="150" height="40" as="alternateBounds"/>
                    </mxGeometry>
                </mxCell>
                <mxCell id="27" value="否" style="shape=partialRectangle;html=1;whiteSpace=wrap;connectable=0;strokeColor=#9673a6;overflow=hidden;fillColor=#CC99FF;top=0;left=0;bottom=0;right=0;pointerEvents=1;fontSize=16;fontFamily=思源宋体;" parent="23" vertex="1">
                    <mxGeometry x="450" width="150" height="40" as="geometry">
                        <mxRectangle width="150" height="40" as="alternateBounds"/>
                    </mxGeometry>
                </mxCell>
                <mxCell id="28" style="shape=tableRow;horizontal=0;startSize=0;swimlaneHead=0;swimlaneBody=0;strokeColor=inherit;top=0;left=0;bottom=0;right=0;collapsible=0;dropTarget=0;fillColor=none;points=[[0,0.5],[1,0.5]];portConstraint=eastwest;fontSize=16;fontFamily=思源宋体;" parent="2" vertex="1">
                    <mxGeometry y="200" width="600" height="40" as="geometry"/>
                </mxCell>
                <mxCell id="29" value="晴" style="shape=partialRectangle;html=1;whiteSpace=wrap;connectable=0;strokeColor=#36393d;overflow=hidden;fillColor=#ffcc99;top=0;left=0;bottom=0;right=0;pointerEvents=1;fontSize=16;fontFamily=思源宋体;" parent="28" vertex="1">
                    <mxGeometry width="150" height="40" as="geometry">
                        <mxRectangle width="150" height="40" as="alternateBounds"/>
                    </mxGeometry>
                </mxCell>
                <mxCell id="30" value="高" style="shape=partialRectangle;html=1;whiteSpace=wrap;connectable=0;strokeColor=#36393d;overflow=hidden;fillColor=#ffcc99;top=0;left=0;bottom=0;right=0;pointerEvents=1;fontSize=16;fontFamily=思源宋体;" parent="28" vertex="1">
                    <mxGeometry x="150" width="150" height="40" as="geometry">
                        <mxRectangle width="150" height="40" as="alternateBounds"/>
                    </mxGeometry>
                </mxCell>
                <mxCell id="31" value="大风" style="shape=partialRectangle;html=1;whiteSpace=wrap;connectable=0;strokeColor=#36393d;overflow=hidden;fillColor=#ffcc99;top=0;left=0;bottom=0;right=0;pointerEvents=1;fontSize=16;fontFamily=思源宋体;" parent="28" vertex="1">
                    <mxGeometry x="300" width="150" height="40" as="geometry">
                        <mxRectangle width="150" height="40" as="alternateBounds"/>
                    </mxGeometry>
                </mxCell>
                <mxCell id="32" value="&lt;span style=&quot;color: rgb(0, 0, 0);&quot;&gt;否&lt;/span&gt;" style="shape=partialRectangle;html=1;whiteSpace=wrap;connectable=0;strokeColor=#9673a6;overflow=hidden;fillColor=#CC99FF;top=0;left=0;bottom=0;right=0;pointerEvents=1;fontSize=16;fontFamily=思源宋体;" parent="28" vertex="1">
                    <mxGeometry x="450" width="150" height="40" as="geometry">
                        <mxRectangle width="150" height="40" as="alternateBounds"/>
                    </mxGeometry>
                </mxCell>
                <mxCell id="33" style="shape=tableRow;horizontal=0;startSize=0;swimlaneHead=0;swimlaneBody=0;strokeColor=inherit;top=0;left=0;bottom=0;right=0;collapsible=0;dropTarget=0;fillColor=none;points=[[0,0.5],[1,0.5]];portConstraint=eastwest;fontSize=16;fontFamily=思源宋体;" parent="2" vertex="1">
                    <mxGeometry y="240" width="600" height="40" as="geometry"/>
                </mxCell>
                <mxCell id="34" value="阴" style="shape=partialRectangle;html=1;whiteSpace=wrap;connectable=0;strokeColor=#36393d;overflow=hidden;fillColor=#ffcc99;top=0;left=0;bottom=0;right=0;pointerEvents=1;fontSize=16;fontFamily=思源宋体;" parent="33" vertex="1">
                    <mxGeometry width="150" height="40" as="geometry">
                        <mxRectangle width="150" height="40" as="alternateBounds"/>
                    </mxGeometry>
                </mxCell>
                <mxCell id="35" value="低" style="shape=partialRectangle;html=1;whiteSpace=wrap;connectable=0;strokeColor=#36393d;overflow=hidden;fillColor=#ffcc99;top=0;left=0;bottom=0;right=0;pointerEvents=1;fontSize=16;fontFamily=思源宋体;" parent="33" vertex="1">
                    <mxGeometry x="150" width="150" height="40" as="geometry">
                        <mxRectangle width="150" height="40" as="alternateBounds"/>
                    </mxGeometry>
                </mxCell>
                <mxCell id="36" value="&lt;span style=&quot;color: rgb(0, 0, 0);&quot;&gt;无风&lt;/span&gt;" style="shape=partialRectangle;html=1;whiteSpace=wrap;connectable=0;strokeColor=#36393d;overflow=hidden;fillColor=#ffcc99;top=0;left=0;bottom=0;right=0;pointerEvents=1;fontSize=16;fontFamily=思源宋体;" parent="33" vertex="1">
                    <mxGeometry x="300" width="150" height="40" as="geometry">
                        <mxRectangle width="150" height="40" as="alternateBounds"/>
                    </mxGeometry>
                </mxCell>
                <mxCell id="37" value="&lt;span style=&quot;color: rgb(0, 0, 0);&quot;&gt;是&lt;/span&gt;" style="shape=partialRectangle;html=1;whiteSpace=wrap;connectable=0;strokeColor=#9673a6;overflow=hidden;fillColor=#CC99FF;top=0;left=0;bottom=0;right=0;pointerEvents=1;fontSize=16;fontFamily=思源宋体;" parent="33" vertex="1">
                    <mxGeometry x="450" width="150" height="40" as="geometry">
                        <mxRectangle width="150" height="40" as="alternateBounds"/>
                    </mxGeometry>
                </mxCell>
                <mxCell id="38" style="shape=tableRow;horizontal=0;startSize=0;swimlaneHead=0;swimlaneBody=0;strokeColor=inherit;top=0;left=0;bottom=0;right=0;collapsible=0;dropTarget=0;fillColor=none;points=[[0,0.5],[1,0.5]];portConstraint=eastwest;fontSize=16;fontFamily=思源宋体;" parent="2" vertex="1">
                    <mxGeometry y="280" width="600" height="40" as="geometry"/>
                </mxCell>
                <mxCell id="39" value="雨" style="shape=partialRectangle;html=1;whiteSpace=wrap;connectable=0;strokeColor=#36393d;overflow=hidden;fillColor=#ffcc99;top=0;left=0;bottom=0;right=0;pointerEvents=1;fontSize=16;fontFamily=思源宋体;" parent="38" vertex="1">
                    <mxGeometry width="150" height="40" as="geometry">
                        <mxRectangle width="150" height="40" as="alternateBounds"/>
                    </mxGeometry>
                </mxCell>
                <mxCell id="40" value="中" style="shape=partialRectangle;html=1;whiteSpace=wrap;connectable=0;strokeColor=#36393d;overflow=hidden;fillColor=#ffcc99;top=0;left=0;bottom=0;right=0;pointerEvents=1;fontSize=16;fontFamily=思源宋体;" parent="38" vertex="1">
                    <mxGeometry x="150" width="150" height="40" as="geometry">
                        <mxRectangle width="150" height="40" as="alternateBounds"/>
                    </mxGeometry>
                </mxCell>
                <mxCell id="41" value="&lt;span style=&quot;color: rgb(0, 0, 0);&quot;&gt;大风&lt;/span&gt;" style="shape=partialRectangle;html=1;whiteSpace=wrap;connectable=0;strokeColor=#36393d;overflow=hidden;fillColor=#ffcc99;top=0;left=0;bottom=0;right=0;pointerEvents=1;fontSize=16;fontFamily=思源宋体;" parent="38" vertex="1">
                    <mxGeometry x="300" width="150" height="40" as="geometry">
                        <mxRectangle width="150" height="40" as="alternateBounds"/>
                    </mxGeometry>
                </mxCell>
                <mxCell id="42" value="&lt;span style=&quot;color: rgb(0, 0, 0);&quot;&gt;否&lt;/span&gt;" style="shape=partialRectangle;html=1;whiteSpace=wrap;connectable=0;strokeColor=#9673a6;overflow=hidden;fillColor=#CC99FF;top=0;left=0;bottom=0;right=0;pointerEvents=1;fontSize=16;fontFamily=思源宋体;" parent="38" vertex="1">
                    <mxGeometry x="450" width="150" height="40" as="geometry">
                        <mxRectangle width="150" height="40" as="alternateBounds"/>
                    </mxGeometry>
                </mxCell>
                <mxCell id="43" style="shape=tableRow;horizontal=0;startSize=0;swimlaneHead=0;swimlaneBody=0;strokeColor=inherit;top=0;left=0;bottom=0;right=0;collapsible=0;dropTarget=0;fillColor=none;points=[[0,0.5],[1,0.5]];portConstraint=eastwest;fontSize=16;fontFamily=思源宋体;" parent="2" vertex="1">
                    <mxGeometry y="320" width="600" height="40" as="geometry"/>
                </mxCell>
                <mxCell id="44" value="晴" style="shape=partialRectangle;html=1;whiteSpace=wrap;connectable=0;strokeColor=#36393d;overflow=hidden;fillColor=#ffcc99;top=0;left=0;bottom=0;right=0;pointerEvents=1;fontSize=16;fontFamily=思源宋体;" parent="43" vertex="1">
                    <mxGeometry width="150" height="40" as="geometry">
                        <mxRectangle width="150" height="40" as="alternateBounds"/>
                    </mxGeometry>
                </mxCell>
                <mxCell id="45" value="中" style="shape=partialRectangle;html=1;whiteSpace=wrap;connectable=0;strokeColor=#36393d;overflow=hidden;fillColor=#ffcc99;top=0;left=0;bottom=0;right=0;pointerEvents=1;fontSize=16;fontFamily=思源宋体;" parent="43" vertex="1">
                    <mxGeometry x="150" width="150" height="40" as="geometry">
                        <mxRectangle width="150" height="40" as="alternateBounds"/>
                    </mxGeometry>
                </mxCell>
                <mxCell id="46" value="&lt;span style=&quot;color: rgb(0, 0, 0);&quot;&gt;无风&lt;/span&gt;" style="shape=partialRectangle;html=1;whiteSpace=wrap;connectable=0;strokeColor=#36393d;overflow=hidden;fillColor=#ffcc99;top=0;left=0;bottom=0;right=0;pointerEvents=1;fontSize=16;fontFamily=思源宋体;" parent="43" vertex="1">
                    <mxGeometry x="300" width="150" height="40" as="geometry">
                        <mxRectangle width="150" height="40" as="alternateBounds"/>
                    </mxGeometry>
                </mxCell>
                <mxCell id="47" value="&lt;span style=&quot;color: rgb(0, 0, 0);&quot;&gt;是&lt;/span&gt;" style="shape=partialRectangle;html=1;whiteSpace=wrap;connectable=0;strokeColor=#9673a6;overflow=hidden;fillColor=#CC99FF;top=0;left=0;bottom=0;right=0;pointerEvents=1;fontSize=16;fontFamily=思源宋体;" parent="43" vertex="1">
                    <mxGeometry x="450" width="150" height="40" as="geometry">
                        <mxRectangle width="150" height="40" as="alternateBounds"/>
                    </mxGeometry>
                </mxCell>
                <mxCell id="48" style="shape=tableRow;horizontal=0;startSize=0;swimlaneHead=0;swimlaneBody=0;strokeColor=inherit;top=0;left=0;bottom=0;right=0;collapsible=0;dropTarget=0;fillColor=none;points=[[0,0.5],[1,0.5]];portConstraint=eastwest;fontSize=16;fontFamily=思源宋体;" parent="2" vertex="1">
                    <mxGeometry y="360" width="600" height="40" as="geometry"/>
                </mxCell>
                <mxCell id="49" value="雨" style="shape=partialRectangle;html=1;whiteSpace=wrap;connectable=0;strokeColor=#36393d;overflow=hidden;fillColor=#ffcc99;top=0;left=0;bottom=0;right=0;pointerEvents=1;fontSize=16;fontFamily=思源宋体;" parent="48" vertex="1">
                    <mxGeometry width="150" height="40" as="geometry">
                        <mxRectangle width="150" height="40" as="alternateBounds"/>
                    </mxGeometry>
                </mxCell>
                <mxCell id="50" value="高" style="shape=partialRectangle;html=1;whiteSpace=wrap;connectable=0;strokeColor=#36393d;overflow=hidden;fillColor=#ffcc99;top=0;left=0;bottom=0;right=0;pointerEvents=1;fontSize=16;fontFamily=思源宋体;" parent="48" vertex="1">
                    <mxGeometry x="150" width="150" height="40" as="geometry">
                        <mxRectangle width="150" height="40" as="alternateBounds"/>
                    </mxGeometry>
                </mxCell>
                <mxCell id="51" value="&lt;span style=&quot;color: rgb(0, 0, 0);&quot;&gt;微风&lt;/span&gt;" style="shape=partialRectangle;html=1;whiteSpace=wrap;connectable=0;strokeColor=#36393d;overflow=hidden;fillColor=#ffcc99;top=0;left=0;bottom=0;right=0;pointerEvents=1;fontSize=16;fontFamily=思源宋体;" parent="48" vertex="1">
                    <mxGeometry x="300" width="150" height="40" as="geometry">
                        <mxRectangle width="150" height="40" as="alternateBounds"/>
                    </mxGeometry>
                </mxCell>
                <mxCell id="52" value="&lt;span style=&quot;color: rgb(0, 0, 0);&quot;&gt;否&lt;/span&gt;" style="shape=partialRectangle;html=1;whiteSpace=wrap;connectable=0;strokeColor=#9673a6;overflow=hidden;fillColor=#CC99FF;top=0;left=0;bottom=0;right=0;pointerEvents=1;fontSize=16;fontFamily=思源宋体;" parent="48" vertex="1">
                    <mxGeometry x="450" width="150" height="40" as="geometry">
                        <mxRectangle width="150" height="40" as="alternateBounds"/>
                    </mxGeometry>
                </mxCell>
                <mxCell id="53" style="shape=tableRow;horizontal=0;startSize=0;swimlaneHead=0;swimlaneBody=0;strokeColor=inherit;top=0;left=0;bottom=0;right=0;collapsible=0;dropTarget=0;fillColor=none;points=[[0,0.5],[1,0.5]];portConstraint=eastwest;fontSize=16;fontFamily=思源宋体;" parent="2" vertex="1">
                    <mxGeometry y="400" width="600" height="40" as="geometry"/>
                </mxCell>
                <mxCell id="54" value="阴" style="shape=partialRectangle;html=1;whiteSpace=wrap;connectable=0;strokeColor=#36393d;overflow=hidden;fillColor=#ffcc99;top=0;left=0;bottom=0;right=0;pointerEvents=1;fontSize=16;fontFamily=思源宋体;" parent="53" vertex="1">
                    <mxGeometry width="150" height="40" as="geometry">
                        <mxRectangle width="150" height="40" as="alternateBounds"/>
                    </mxGeometry>
                </mxCell>
                <mxCell id="55" value="中" style="shape=partialRectangle;html=1;whiteSpace=wrap;connectable=0;strokeColor=#36393d;overflow=hidden;fillColor=#ffcc99;top=0;left=0;bottom=0;right=0;pointerEvents=1;fontSize=16;fontFamily=思源宋体;" parent="53" vertex="1">
                    <mxGeometry x="150" width="150" height="40" as="geometry">
                        <mxRectangle width="150" height="40" as="alternateBounds"/>
                    </mxGeometry>
                </mxCell>
                <mxCell id="56" value="&lt;span style=&quot;color: rgb(0, 0, 0);&quot;&gt;大风&lt;/span&gt;" style="shape=partialRectangle;html=1;whiteSpace=wrap;connectable=0;strokeColor=#36393d;overflow=hidden;fillColor=#ffcc99;top=0;left=0;bottom=0;right=0;pointerEvents=1;fontSize=16;fontFamily=思源宋体;" parent="53" vertex="1">
                    <mxGeometry x="300" width="150" height="40" as="geometry">
                        <mxRectangle width="150" height="40" as="alternateBounds"/>
                    </mxGeometry>
                </mxCell>
                <mxCell id="57" value="&lt;span style=&quot;color: rgb(0, 0, 0);&quot;&gt;是&lt;/span&gt;" style="shape=partialRectangle;html=1;whiteSpace=wrap;connectable=0;strokeColor=#9673a6;overflow=hidden;fillColor=#CC99FF;top=0;left=0;bottom=0;right=0;pointerEvents=1;fontSize=16;fontFamily=思源宋体;" parent="53" vertex="1">
                    <mxGeometry x="450" width="150" height="40" as="geometry">
                        <mxRectangle width="150" height="40" as="alternateBounds"/>
                    </mxGeometry>
                </mxCell>
            </root>
        </mxGraphModel>
    </diagram>
</mxfile>